<svg width="106" height="19" viewBox="0 0 106 19" fill="none" xmlns="http://www.w3.org/2000/svg">
<path d="M8.90715 16.8848C9.02278 16.5874 9.07791 16.27 9.06932 15.9511C9.08695 15.0672 9.32343 14.2015 9.75764 13.4312C10.1908 12.6622 10.8085 12.0128 11.5551 11.5413C11.8316 11.3932 12.0751 11.1906 12.2709 10.9457C12.4667 10.7009 12.6108 10.4189 12.6944 10.1168C12.7779 9.81476 12.7993 9.49891 12.7571 9.18836C12.715 8.87782 12.6102 8.57905 12.4491 8.31013C12.2339 7.95091 11.9243 7.65641 11.5551 7.46047C11.3435 7.31381 11.1402 7.15588 10.9465 6.98666L10.4608 6.51166C9.57097 5.57721 9.07195 4.33858 9.06576 3.04891C9.07495 2.72992 9.02009 2.41233 8.90443 2.11487C8.78876 1.8174 8.61463 1.54609 8.3923 1.31694C8.17096 1.08804 7.90572 0.906033 7.61242 0.781781C7.31911 0.657529 7.00375 0.59358 6.68516 0.59375C6.36675 0.594199 6.05167 0.658432 5.75855 0.782649C5.46543 0.906866 5.20022 1.08855 4.97862 1.31694C4.75669 1.5465 4.58281 1.81796 4.46717 2.11545C4.35154 2.41295 4.29646 2.73049 4.30516 3.0495C4.31035 3.4636 4.42454 3.86905 4.63625 4.22513C4.84722 4.5806 5.14844 4.87411 5.50943 5.07597C6.97107 5.99984 7.9881 7.76625 7.9881 9.50356C7.98449 10.782 7.49499 12.0114 6.61859 12.9432L5.51299 13.924C5.15219 14.1253 4.85083 14.4186 4.63922 14.7749C4.42701 15.1305 4.31348 15.5367 4.30813 15.9511C4.29904 16.2701 4.35394 16.5876 4.4696 16.8851C4.58527 17.1825 4.75935 17.4538 4.9816 17.6831C5.20297 17.9119 5.46822 18.0939 5.76151 18.2181C6.05481 18.3424 6.37015 18.4064 6.68873 18.4062C7.00724 18.4059 7.32243 18.3417 7.61566 18.2175C7.90889 18.0932 8.17419 17.9115 8.39586 17.6831C8.6177 17.4536 8.79151 17.1822 8.90715 16.8848Z" fill="#14B8A6"/>
<path d="M12.1359 4.37C11.8737 3.97694 11.734 3.51441 11.734 3.04178C11.7344 2.40868 11.9855 1.80144 12.4325 1.35256C12.8211 0.962017 13.3337 0.718736 13.8822 0.664459C14.4308 0.610182 14.9812 0.748292 15.439 1.05509C15.8311 1.31807 16.1364 1.69122 16.3163 2.12741C16.4963 2.5641 16.5432 3.04411 16.4514 3.50734C16.3595 3.97057 16.1328 4.39643 15.7998 4.73159C15.4677 5.06583 15.0435 5.29365 14.5813 5.38598C14.1191 5.4783 13.6398 5.43094 13.2046 5.24994C12.769 5.06876 12.3971 4.76251 12.1359 4.37Z" fill="#14B8A6"/>
<path d="M12.7927 13.9638C13.1844 13.7014 13.6451 13.5613 14.1158 13.5613V13.5601C14.4288 13.5604 14.7386 13.6225 15.0274 13.7428C15.3163 13.863 15.5786 14.039 15.7992 14.2607C16.1891 14.6525 16.4316 15.1667 16.4857 15.7165C16.5399 16.2663 16.4024 16.8179 16.0964 17.2781C15.8352 17.6712 15.463 17.9778 15.0271 18.1592C14.5919 18.3403 14.1126 18.3876 13.6504 18.2953C13.1881 18.203 12.7639 17.9751 12.4319 17.6409C12.0987 17.3057 11.872 16.8797 11.7801 16.4164C11.6882 15.953 11.7353 15.4729 11.9153 15.0361C12.0953 14.6 12.4006 14.2268 12.7927 13.9638Z" fill="#14B8A6"/>
<path d="M19.8085 8.16881C20.0699 8.56174 20.2096 9.02348 20.2097 9.49593C20.2093 10.1292 19.9582 10.7366 19.5112 11.1857C19.2906 11.4073 19.0283 11.5832 18.7394 11.7035C18.4506 11.8237 18.1408 11.8858 17.8279 11.8863C17.3566 11.8863 16.896 11.7461 16.5047 11.4837C16.1126 11.2207 15.8073 10.8476 15.6274 10.4114C15.4473 9.97464 15.4003 9.49451 15.4922 9.03115C15.5841 8.5678 15.8108 8.14184 16.1439 7.80663C16.476 7.47227 16.9003 7.24437 17.3627 7.15205C17.825 7.05972 18.3045 7.10715 18.7397 7.28828C19.1754 7.46962 19.5473 7.77608 19.8085 8.16881Z" fill="#14B8A6"/>
<path d="M1.65292 7.50915C2.04464 7.24672 2.50471 7.10659 2.97607 7.10659C3.28893 7.10725 3.5986 7.16953 3.88734 7.28985C4.17609 7.41017 4.43825 7.58618 4.65883 7.80781C5.04853 8.19948 5.29094 8.71352 5.34509 9.26307C5.39923 9.81263 5.26181 10.364 4.95604 10.8241C4.69489 11.2168 4.32294 11.5232 3.8873 11.7046C3.45198 11.8847 2.9729 11.9316 2.51086 11.8393C2.04882 11.747 1.62463 11.5197 1.29212 11.1862C0.959076 10.8511 0.732422 10.4252 0.640541 9.96199C0.548659 9.49876 0.595633 9.01875 0.775582 8.58206C0.955445 8.14567 1.26075 7.77231 1.65292 7.50915Z" fill="#14B8A6"/>
<path d="M31.0387 14H32.4652V10.6761H34.4041C36.5969 10.6761 37.6818 9.35121 37.6818 7.60618C37.6818 5.86577 36.6062 4.54545 34.4087 4.54545H31.0387V14ZM32.4652 9.46662V5.76882H34.2564C35.669 5.76882 36.2461 6.53516 36.2461 7.60618C36.2461 8.6772 35.669 9.46662 34.2749 9.46662H32.4652ZM39.2433 14H40.6237V9.66974C40.6237 8.74183 41.3392 8.07244 42.3179 8.07244C42.6041 8.07244 42.9273 8.12322 43.0381 8.15554V6.83523C42.8996 6.81676 42.6272 6.80291 42.4518 6.80291C41.6208 6.80291 40.9099 7.27379 40.6514 8.03551H40.5775V6.90909H39.2433V14ZM46.9656 14.1431C48.9645 14.1431 50.271 12.6797 50.271 10.4869C50.271 8.28018 48.9645 6.81676 46.9656 6.81676C44.9666 6.81676 43.6602 8.28018 43.6602 10.4869C43.6602 12.6797 44.9666 14.1431 46.9656 14.1431ZM46.9702 12.9844C45.6637 12.9844 45.0543 11.8441 45.0543 10.4822C45.0543 9.125 45.6637 7.97088 46.9702 7.97088C48.2674 7.97088 48.8768 9.125 48.8768 10.4822C48.8768 11.8441 48.2674 12.9844 46.9702 12.9844ZM54.4662 14.1385C55.7588 14.1385 56.2666 13.3491 56.5159 12.8967H56.6313V14H57.9793V4.54545H56.599V8.05859H56.5159C56.2666 7.62003 55.7957 6.81676 54.4754 6.81676C52.7627 6.81676 51.5024 8.16939 51.5024 10.4684C51.5024 12.7628 52.7442 14.1385 54.4662 14.1385ZM54.7709 12.9613C53.5383 12.9613 52.8966 11.8764 52.8966 10.4545C52.8966 9.04652 53.5244 7.98935 54.7709 7.98935C55.9758 7.98935 56.6221 8.97266 56.6221 10.4545C56.6221 11.9457 55.9619 12.9613 54.7709 12.9613ZM64.4412 11.0593C64.4458 12.2642 63.5502 12.8366 62.7747 12.8366C61.9206 12.8366 61.3297 12.218 61.3297 11.2532V6.90909H59.9494V11.4194C59.9494 13.1783 60.9142 14.0923 62.2761 14.0923C63.3425 14.0923 64.0673 13.5291 64.3951 12.772H64.4689V14H65.8262V6.90909H64.4412V11.0593ZM70.6677 14.1431C72.3435 14.1431 73.4284 13.1367 73.5807 11.7564H72.2373C72.0619 12.5227 71.4664 12.9751 70.6769 12.9751C69.509 12.9751 68.7565 12.0011 68.7565 10.4545C68.7565 8.93572 69.5228 7.98011 70.6769 7.98011C71.5541 7.98011 72.0896 8.53409 72.2373 9.19886H73.5807C73.433 7.76776 72.265 6.81676 70.6539 6.81676C68.6549 6.81676 67.3623 8.32173 67.3623 10.4869C67.3623 12.6243 68.6088 14.1431 70.6677 14.1431ZM78.3668 6.90909H76.9126V5.21023H75.5323V6.90909H74.4936V8.01705H75.5323V12.2042C75.5277 13.4922 76.511 14.1154 77.6005 14.0923C78.0391 14.0877 78.3345 14.0046 78.4961 13.9446L78.2468 12.8043C78.1545 12.8228 77.9837 12.8643 77.7621 12.8643C77.3143 12.8643 76.9126 12.7166 76.9126 11.918V8.01705H78.3668V6.90909ZM81.4264 4.54545H80.0461V14H81.4264V4.54545ZM85.3469 14.157C86.5195 14.157 87.1797 13.5614 87.4428 13.0305H87.4982V14H88.8462V9.29119C88.8462 7.22763 87.2212 6.81676 86.0948 6.81676C84.8114 6.81676 83.6296 7.33381 83.168 8.62642L84.4652 8.92188C84.6683 8.41868 85.1854 7.93395 86.1133 7.93395C87.0043 7.93395 87.4613 8.40021 87.4613 9.20348V9.2358C87.4613 9.73899 86.9442 9.72976 85.6701 9.87749C84.3267 10.0344 82.951 10.3853 82.951 11.9964C82.951 13.3906 83.9989 14.157 85.3469 14.157ZM85.647 13.049C84.8668 13.049 84.3036 12.6982 84.3036 12.0149C84.3036 11.2763 84.9592 11.0131 85.7578 10.907C86.2056 10.8469 87.2674 10.7269 87.4659 10.5284V11.4425C87.4659 12.2827 86.7965 13.049 85.647 13.049ZM92.0651 9.78977C92.0651 8.65874 92.7575 8.01243 93.7178 8.01243C94.6549 8.01243 95.2227 8.62642 95.2227 9.65589V14H96.6031V9.4897C96.6031 7.73544 95.6382 6.81676 94.1887 6.81676C93.1222 6.81676 92.4252 7.31072 92.0974 8.06321H92.0097V6.90909H90.6847V14H92.0651V9.78977ZM101.51 14.1431C103.057 14.1431 104.151 13.3814 104.465 12.2273L103.158 11.9918C102.909 12.6612 102.309 13.0028 101.524 13.0028C100.342 13.0028 99.5484 12.2365 99.5115 10.87H104.553V10.3807C104.553 7.81854 103.02 6.81676 101.413 6.81676C99.4376 6.81676 98.1357 8.32173 98.1357 10.5007C98.1357 12.7028 99.4191 14.1431 101.51 14.1431ZM99.5161 9.83594C99.5715 8.82955 100.301 7.95703 101.423 7.95703C102.494 7.95703 103.195 8.75107 103.2 9.83594H99.5161Z" fill="#F3F4F6"/>
</svg>